<?xml version="1.0" standalone="no"?>
<!DOCTYPE svg PUBLIC "-//W3C//DTD SVG 20010904//EN"
 "http://www.w3.org/TR/2001/REC-SVG-20010904/DTD/svg10.dtd">
<svg version="1.0" xmlns="http://www.w3.org/2000/svg"
 width="1024.000000pt" height="1024.000000pt" viewBox="0 0 1024.000000 1024.000000"
 preserveAspectRatio="xMidYMid meet">

<g transform="translate(0.000000,1024.000000) scale(0.100000,-0.100000)"
fill="#000000" stroke="none">
<path d="M7515 6459 c-341 -16 -565 -36 -637 -59 -116 -36 -198 -115 -237
-232 -54 -156 -77 -519 -68 -1068 9 -528 31 -766 82 -878 34 -74 113 -154 184
-186 143 -64 449 -98 1021 -112 446 -11 1244 21 1434 57 250 47 341 169 381
514 57 503 40 1462 -30 1669 -44 130 -139 211 -294 251 -110 28 -490 46 -1086
50 -308 2 -645 -1 -750 -6z m489 -484 c-1 -22 -2 -86 -3 -142 l-1 -103 -180 0
-180 0 0 -680 0 -680 -160 0 -160 0 0 680 0 680 -185 0 -185 0 0 145 0 145
528 -2 527 -3 -1 -40z m395 13 c19 -62 232 -987 252 -1101 7 -37 16 -64 19
-60 4 5 17 55 28 113 22 113 216 980 233 1043 l10 37 170 0 169 0 -6 -27 c-3
-16 -96 -385 -205 -821 -110 -435 -199 -794 -199 -797 0 -3 -90 -5 -199 -5
-198 0 -200 0 -207 23 -22 67 -409 1618 -405 1622 2 3 77 5 167 5 l162 0 11
-32z"/>
<path d="M1043 5780 c-63 -13 -116 -44 -161 -95 -22 -25 -42 -45 -46 -45 -3 0
-6 27 -6 60 l0 60 -130 0 -130 0 0 -850 0 -850 135 0 135 0 0 284 0 285 53
-52 c59 -60 103 -77 195 -77 117 0 213 52 267 144 14 24 35 78 47 122 20 73
22 101 22 399 1 304 0 323 -21 390 -30 94 -83 162 -153 197 -61 30 -143 41
-207 28z m12 -214 c81 -34 99 -120 93 -451 -5 -272 -15 -324 -70 -370 -28 -24
-39 -27 -85 -23 -64 6 -98 28 -127 84 -20 37 -21 55 -21 319 0 303 5 339 52
396 27 32 74 58 106 59 10 0 33 -6 52 -14z"/>
<path d="M1850 5779 c-170 -30 -263 -142 -277 -334 l-6 -80 131 0 131 0 6 60
c12 98 45 143 112 152 92 12 146 -45 147 -153 0 -120 -31 -149 -197 -189 -143
-33 -213 -61 -257 -101 -124 -112 -131 -429 -11 -557 51 -56 96 -72 201 -72
84 0 101 3 146 27 48 25 114 88 114 108 0 6 5 10 10 10 6 0 10 -13 10 -29 0
-16 3 -43 6 -60 l7 -31 132 0 132 0 -9 48 c-5 26 -12 245 -14 487 -5 404 -7
446 -25 509 -27 90 -98 166 -180 191 -65 20 -233 28 -309 14z m248 -776 c-5
-174 -14 -208 -66 -257 -23 -22 -44 -30 -82 -34 -91 -9 -128 32 -137 151 -11
150 34 215 184 265 48 16 92 30 97 31 5 0 7 -68 4 -156z"/>
<path d="M2979 5771 c-75 -24 -115 -55 -161 -125 l-38 -59 0 34 c0 19 -3 58
-6 87 l-7 52 -128 0 -129 0 0 -615 0 -615 134 0 135 0 3 408 c3 366 5 411 21
447 39 87 90 117 201 121 l78 3 5 141 5 140 -28 -1 c-16 0 -54 -8 -85 -18z"/>
<path d="M3422 5775 c-151 -33 -247 -141 -289 -325 -24 -106 -24 -521 0 -627
48 -216 180 -323 397 -323 220 0 348 107 394 332 24 118 34 108 -108 108
l-124 0 -12 -67 c-21 -125 -55 -163 -144 -163 -55 0 -96 31 -120 91 -48 120
-47 583 3 693 25 56 52 77 104 83 88 10 136 -45 145 -167 l4 -65 136 0 136 0
-3 53 c-8 161 -83 293 -194 346 -96 45 -209 56 -325 31z"/>
<path d="M4359 5780 c-157 -28 -251 -128 -294 -310 -25 -107 -32 -478 -12
-611 39 -260 177 -370 445 -356 81 4 102 9 160 38 79 41 132 104 161 194 23
69 41 162 33 170 -3 3 -59 5 -124 5 -86 0 -120 -3 -122 -12 -2 -7 -9 -40 -16
-72 -18 -86 -50 -116 -125 -116 -49 0 -60 4 -85 29 -40 39 -58 115 -62 251
l-3 115 273 3 272 2 0 119 c0 319 -72 477 -243 535 -57 19 -195 28 -258 16z
m157 -215 c50 -21 76 -83 82 -202 l5 -93 -147 0 -146 0 5 58 c3 31 8 76 10
100 13 121 93 178 191 137z"/>
<path d="M5485 5783 c-88 -19 -149 -62 -196 -135 l-34 -53 -9 83 -8 82 -135 0
c-119 0 -134 -2 -129 -16 3 -9 6 -285 6 -615 l0 -599 138 0 137 0 0 403 c0
432 2 448 52 508 40 47 78 61 165 63 l78 1 0 120 c0 66 3 130 6 143 6 19 3 22
-22 21 -16 -1 -38 -3 -49 -6z"/>
<path d="M5872 5775 c-146 -33 -232 -124 -279 -295 -26 -95 -27 -594 -1 -687
49 -177 142 -260 318 -285 189 -28 356 46 429 191 48 93 56 158 56 451 0 294
-7 344 -57 450 -32 65 -107 134 -174 159 -74 28 -208 35 -292 16z m194 -226
c50 -47 59 -108 59 -404 0 -229 -3 -279 -18 -327 -23 -75 -61 -108 -126 -108
-63 0 -94 25 -118 93 -16 46 -18 87 -18 332 0 237 3 289 17 335 16 53 44 90
78 103 31 13 101 -1 126 -24z"/>
</g>
</svg>
